<?xml version="1.0" encoding="utf-8"?>
<!-- Generator: Adobe Illustrator 24.1.1, SVG Export Plug-In . SVG Version: 6.00 Build 0)  -->
<svg version="1.1" id="Layer_1" xmlns="http://www.w3.org/2000/svg" xmlns:xlink="http://www.w3.org/1999/xlink" x="0px" y="0px"
	 viewBox="0 0 471 929" style="enable-background:new 0 0 471 929;" xml:space="preserve">
<style type="text/css">
	.st0{fill:#FFFFFF;}
</style>
<g id="XMLID_1_">
	<path id="XMLID_42_" class="st0" d="M75.8,99.1c-14.1,0-24.3,11.4-24.3,27.1v44.2c0,15.7,10.2,27.1,24.3,27.1
		c14.1,0,24.3-11.4,24.3-27.1v-9H84.7v9.6c0,7.1-3.6,11.8-8.9,11.8s-8.8-4.7-8.8-11.7v-45.6c0-7.2,3.5-11.8,8.8-11.8
		s8.9,4.8,8.9,11.8v9.8h15.4v-9.1C100.2,110.5,89.9,99.1,75.8,99.1"/>
	<path id="XMLID_2_" class="st0" d="M134.4,99.1c-14.1,0-24.3,11.4-24.3,27.1v44.2c0,15.7,10.2,27.1,24.3,27.1
		c14.1,0,24.3-11.4,24.3-27.1v-44.2C158.7,110.5,148.5,99.1,134.4,99.1 M134.4,182.9c-5.4,0-8.8-4.6-8.8-11.8v-45.5
		c0-7.2,3.5-11.8,8.8-11.8s8.9,4.8,8.9,11.8v45.5C143.3,178.1,139.7,182.9,134.4,182.9"/>
	<polygon id="XMLID_39_" class="st0" points="70,209 54.5,209 54.5,305.9 94.8,305.9 94.8,291.1 70,291.1 	"/>
	<path id="XMLID_38_" class="st0" d="M132.1,280.2c0,7.1-3.6,11.8-8.9,11.8s-8.8-4.7-8.8-11.7V209H98.9v70.5
		c0,15.7,10.2,27.1,24.3,27.1c14.2,0,24.5-11.4,24.5-27.1V209h-15.5v71.2H132.1z"/>
	<polygon id="XMLID_37_" class="st0" points="209.2,209 203.6,209 187.9,258.5 172.5,209 166.8,209 165.2,209 159.3,209 
		159.3,305.9 174.2,305.9 174.2,262 182.7,288.9 193.3,288.9 201.9,262 201.9,305.9 216.8,305.9 216.8,209 210.9,209 	"/>
	<path id="XMLID_3_" class="st0" d="M92.6,370.5c4.2-4.3,6.6-10.2,6.6-16.7V348c0-13.7-10.2-23.7-24.3-23.7H54.1v96.9h22.8
		c14.1,0,24.3-10.8,24.3-25.6v-5C101.2,382.3,98,375.1,92.6,370.5 M83.6,354.5c0,5.7-3.6,9.3-9.2,9.3h-4.9V339h4.9
		c5.6,0,9.2,3.6,9.2,9.2V354.5z M69.5,378.6h7.1c5.5,0,9.1,4.3,9.1,11v5.8c0,6.7-3.6,11.1-9.1,11.1h-7.1V378.6z"/>
	<path id="XMLID_33_" class="st0" d="M142.9,395.5c0,7.1-3.6,11.8-8.9,11.8s-8.8-4.7-8.8-11.7v-71.3h-15.6v70.5
		c0,15.7,10.2,27.1,24.3,27.1c14.2,0,24.5-11.4,24.5-27.1v-70.5h-15.5V395.5z"/>
	<path id="XMLID_32_" class="st0" d="M204.9,373l-17.4-12.6c-2.5-1.7-4.1-5.7-4.1-10.7c0-7,2.9-11.5,7.3-11.5c4.5,0,7.6,4.9,7.6,12
		v8h15.6v-8c0-15.7-9.6-26.6-23.3-26.6s-22.8,10.6-22.8,26.5c0,9.5,3.6,17.7,10,22.5l17.1,12.6l0.2,0.1c2.5,1.6,4,5.6,4,10.6
		c0,5.6-2.1,11.6-8.1,11.6c-5.8,0-8.4-6.1-8.4-12.1v-8.5h-15.5v8.5c0,15.7,9.9,26.7,24,26.7c14,0,23.7-10.9,23.7-26.5
		C214.7,385.8,211,377.4,204.9,373"/>
	<path id="XMLID_4_" class="st0" d="M98.2,526.3c0-15.7-10.2-27.1-24.3-27.1H51.6v96.9h15.5v-37.5h6.8c14.1,0,24.3-11.4,24.3-27.1
		V526.3z M67,514h6.7c5.4,0,8.8,4.6,8.8,11.7v6.4c0,7.2-3.5,11.8-8.8,11.8H67V514z"/>
	<path id="XMLID_5_" class="st0" d="M126.7,499.2H124h-5.6L96,596.1h15.9l4.9-22.2H134l5,22.2h15.9l-22.4-96.9H126.7z M120,559.1
		l5.3-24.2l5.3,24.2H120z"/>
	<path id="XMLID_6_" class="st0" d="M206,531.4v-5.1c0-16-10-27.1-24.2-27.1h-21.9v96.9h15.5v-37.5h4.7l14.2,37.5h16.2L194.4,555
		C201.7,550.4,206,541.8,206,531.4 M175.4,514h6.3c5.4,0,8.8,4.6,8.8,11.7v6.4c0,7.2-3.5,11.8-8.8,11.8h-6.3V514z"/>
	<polygon id="XMLID_25_" class="st0" points="242.1,546.1 267.1,499.2 249.8,499.2 232.9,531.3 232.9,499.2 217.4,499.2 
		217.4,596.1 232.9,596.1 232.9,561.1 251.2,596.1 268.5,596.1 	"/>
	<rect id="XMLID_24_" x="51.5" y="451.6" class="st0" width="165.2" height="18"/>
	<path id="XMLID_7_" class="st0" d="M313.9,790.3H9.4V9.5h304.5V790.3z M323.1,0.3h-9.2H9.4H0.2v9.2v780.8v9.2h9.2h304.5h9.2v-9.2
		V9.5V0.3z"/>
	<path id="XMLID_8_" class="st0" d="M455.4,913.3H57.8V631.4h397.6L455.4,913.3L455.4,913.3z M470.8,616h-15.4H57.8H42.4v15.4v281.9
		v15.4h15.4h397.6h15.4v-15.4V631.4L470.8,616L470.8,616z"/>
	<path id="XMLID_19_" class="st0" d="M77.5,698.7c0.7,1.2,1.6,2.1,2.7,2.6c1.1,0.6,2.3,0.9,3.7,0.9c0.9,0,1.7-0.1,2.4-0.4
		c0.8-0.3,1.4-0.6,2-1.1s1-1,1.3-1.7s0.5-1.4,0.5-2.3c0-1-0.2-1.8-0.6-2.4c-0.4-0.6-1-1.2-1.6-1.6c-0.7-0.4-1.5-0.8-2.3-1
		c-0.9-0.3-1.7-0.6-2.6-0.9c-0.9-0.3-1.8-0.6-2.6-1c-0.9-0.4-1.6-0.8-2.3-1.4c-0.7-0.6-1.2-1.3-1.6-2.2s-0.6-2-0.6-3.3
		c0-1.2,0.2-2.3,0.7-3.3s1.1-1.8,2-2.4c0.8-0.6,1.8-1.1,2.9-1.5c1.1-0.3,2.2-0.5,3.4-0.5c1.5,0,2.9,0.3,4.2,0.8
		c1.3,0.5,2.4,1.4,3.4,2.7l-2.2,1.6c-0.7-0.9-1.4-1.6-2.3-2.1s-1.9-0.7-3.1-0.7c-0.8,0-1.6,0.1-2.4,0.3s-1.4,0.6-2,1s-1,1-1.4,1.6
		c-0.3,0.7-0.5,1.4-0.5,2.3c0,1.4,0.4,2.5,1.1,3.2c0.7,0.8,1.6,1.3,2.7,1.8c1.1,0.4,2.2,0.8,3.5,1.1c1.2,0.3,2.4,0.8,3.5,1.3
		c1.1,0.6,2,1.3,2.7,2.3s1.1,2.3,1.1,4.1c0,1.3-0.2,2.4-0.7,3.3c-0.5,1-1.1,1.8-1.9,2.5s-1.7,1.2-2.8,1.5c-1.1,0.3-2.1,0.5-3.3,0.5
		c-1.8,0-3.5-0.3-5.1-1c-1.5-0.6-2.9-1.7-4-3.3L77.5,698.7z"/>
	<path id="XMLID_9_" class="st0" d="M108.8,675.9h2.7l11.7,27.9h-2.9l-3-7.4h-14.8l-3.2,7.4h-2.7L108.8,675.9z M110,678.8l-6.5,15.3
		h12.8L110,678.8z"/>
	<polygon id="XMLID_16_" class="st0" points="128.8,675.9 132.2,675.9 149.2,700.4 149.3,700.4 149.3,675.9 151.9,675.9 
		151.9,703.9 148.5,703.9 131.5,679.4 131.4,679.4 131.4,703.9 128.8,703.9 	"/>
	<path id="XMLID_10_" class="st0" d="M76.8,717.8h8c1.1,0,2.1,0.1,3.2,0.3s2,0.5,2.9,1.1c0.9,0.5,1.5,1.3,2.1,2.2
		c0.5,1,0.8,2.2,0.8,3.8c0,1.4-0.4,2.7-1.3,3.7c-0.8,1.1-2.1,1.7-3.7,2.1v0.1c0.9,0.1,1.8,0.3,2.5,0.6c0.8,0.4,1.4,0.8,2,1.4
		c0.6,0.6,1,1.3,1.3,2.1s0.5,1.7,0.5,2.7c0,1.6-0.3,2.9-0.9,3.9s-1.4,1.8-2.3,2.4c-0.9,0.6-1.9,1-3,1.2s-2.1,0.3-3.1,0.3h-8.9v-27.9
		H76.8z M79.4,729.9h5.4c1.3,0,2.4-0.2,3.3-0.5c0.8-0.3,1.5-0.7,2-1.2s0.8-1,0.9-1.5c0.2-0.5,0.2-1,0.2-1.5c0-1-0.2-1.8-0.5-2.4
		c-0.3-0.6-0.8-1.2-1.3-1.5c-0.6-0.4-1.2-0.6-1.9-0.8c-0.7-0.2-1.5-0.2-2.3-0.2h-5.8L79.4,729.9L79.4,729.9z M79.4,743.3h6
		c1.5,0,2.8-0.2,3.7-0.6c0.9-0.4,1.7-0.8,2.2-1.4c0.5-0.6,0.8-1.1,1-1.8c0.2-0.6,0.3-1.2,0.3-1.7c0-1-0.2-1.9-0.6-2.6
		c-0.4-0.7-0.9-1.3-1.5-1.8s-1.3-0.8-2.2-1c-0.8-0.2-1.6-0.3-2.4-0.3h-6.3v11.2H79.4z"/>
	<polygon id="XMLID_12_" class="st0" points="103.2,717.8 120.2,717.8 120.2,720.2 105.8,720.2 105.8,730.1 119.3,730.1 
		119.3,732.5 105.8,732.5 105.8,743.4 120.9,743.4 120.9,745.7 103.2,745.7 	"/>
	<path id="XMLID_11_" class="st0" d="M128.1,717.8h7.3c0.4,0,0.9,0,1.5,0s1.3,0.1,2,0.2c0.7,0.1,1.5,0.3,2.2,0.6
		c0.8,0.3,1.4,0.7,2,1.3s1.1,1.2,1.5,2.1c0.4,0.8,0.6,1.9,0.6,3.1c0,1.3-0.2,2.4-0.7,3.3c-0.5,0.9-1,1.6-1.7,2.1s-1.5,0.9-2.3,1.2
		s-1.6,0.4-2.4,0.6l8.1,13.4h-3l-7.8-13.2h-4.8v13.2H128L128.1,717.8L128.1,717.8z M130.7,730.1h5.5c1.4,0,2.5-0.2,3.3-0.5
		c0.9-0.3,1.5-0.8,2-1.3s0.8-1,1-1.6s0.3-1.1,0.3-1.6s-0.1-1-0.3-1.6c-0.2-0.6-0.5-1.1-1-1.6s-1.1-0.9-2-1.3c-0.9-0.3-2-0.5-3.3-0.5
		h-5.5V730.1z"/>
	<polygon id="XMLID_45_" class="st0" points="153.1,717.8 156.4,717.8 173.4,742.2 173.5,742.2 173.5,717.8 176.1,717.8 
		176.1,745.7 172.7,745.7 155.8,721.3 155.7,721.3 155.7,745.7 153.1,745.7 	"/>
	<path id="XMLID_46_" class="st0" d="M193.9,717.8h2.7l11.7,27.9h-2.9l-3-7.4h-14.8l-3.2,7.4h-2.7L193.9,717.8z M195.1,720.6
		l-6.5,15.3h12.8L195.1,720.6z"/>
	<path id="XMLID_49_" class="st0" d="M213.9,717.8h7.3c0.4,0,0.9,0,1.5,0s1.3,0.1,2,0.2c0.7,0.1,1.5,0.3,2.2,0.6
		c0.8,0.3,1.4,0.7,2,1.3s1.1,1.2,1.5,2.1c0.4,0.8,0.6,1.9,0.6,3.1c0,1.3-0.2,2.4-0.7,3.3c-0.5,0.9-1,1.6-1.7,2.1s-1.5,0.9-2.3,1.2
		s-1.6,0.4-2.4,0.6l8.1,13.4h-3l-7.8-13.2h-4.8v13.2h-2.6v-27.9H213.9z M216.5,730.1h5.5c1.4,0,2.5-0.2,3.3-0.5
		c0.9-0.3,1.5-0.8,2-1.3s0.8-1,1-1.6s0.3-1.1,0.3-1.6s-0.1-1-0.3-1.6s-0.5-1.1-1-1.6s-1.1-0.9-2-1.3c-0.9-0.3-2-0.5-3.3-0.5h-5.5
		V730.1z"/>
	<path id="XMLID_52_" class="st0" d="M238.5,717.8h8.6c2.4,0,4.5,0.3,6.1,0.9c1.7,0.6,3.1,1.3,4.2,2.3c1.1,0.9,2,1.9,2.6,3.1
		c0.6,1.1,1.1,2.2,1.4,3.2c0.3,1,0.5,2,0.6,2.8s0.1,1.4,0.1,1.8c0,0.3,0,0.9-0.1,1.8c-0.1,0.8-0.3,1.8-0.6,2.8s-0.8,2.1-1.4,3.2
		c-0.6,1.1-1.5,2.1-2.6,3.1c-1.1,0.9-2.5,1.7-4.2,2.3s-3.7,0.9-6.1,0.9h-8.6V717.8z M241.1,743.3h5.4c1.8,0,3.6-0.2,5.2-0.7
		c1.6-0.5,3-1.2,4.2-2.1c1.2-0.9,2.1-2.1,2.8-3.6s1-3.2,1-5.2s-0.3-3.7-1-5.2s-1.6-2.7-2.8-3.6c-1.2-0.9-2.6-1.7-4.2-2.1
		c-1.6-0.5-3.3-0.7-5.2-0.7h-5.4V743.3z"/>
	<path id="XMLID_55_" class="st0" d="M267.8,731.8c0-2.1,0.4-4.1,1.1-5.9c0.7-1.8,1.7-3.3,3-4.6s2.8-2.3,4.6-3.1
		c1.8-0.7,3.7-1.1,5.9-1.1c2.1,0,4.1,0.4,5.9,1.1c1.8,0.7,3.3,1.8,4.6,3.1s2.2,2.8,3,4.6c0.7,1.8,1.1,3.7,1.1,5.9
		c0,2.1-0.4,4.1-1.1,5.9c-0.7,1.8-1.7,3.4-3,4.7s-2.8,2.3-4.6,3s-3.7,1.1-5.9,1.1c-2.1,0-4.1-0.4-5.9-1.1c-1.8-0.7-3.3-1.7-4.6-3
		s-2.2-2.9-3-4.7C268.2,735.9,267.8,733.9,267.8,731.8 M270.4,731.8c0,1.7,0.3,3.4,0.8,4.8c0.6,1.5,1.3,2.8,2.4,3.9
		c1,1.1,2.3,2,3.7,2.6c1.5,0.6,3.1,0.9,4.9,0.9c1.8,0,3.5-0.3,4.9-0.9c1.5-0.6,2.7-1.5,3.7-2.6s1.8-2.4,2.4-3.9
		c0.6-1.5,0.8-3.1,0.8-4.8s-0.3-3.4-0.8-4.8c-0.6-1.5-1.3-2.8-2.4-3.9c-1-1.1-2.3-2-3.7-2.6c-1.5-0.6-3.1-0.9-4.9-0.9
		c-1.8,0-3.5,0.3-4.9,0.9c-1.5,0.6-2.7,1.5-3.7,2.6s-1.8,2.4-2.4,3.9C270.7,728.4,270.4,730,270.4,731.8"/>
</g>
</svg>
